# xmcd CD database file
#
# Track frame offsets:
#	150
#	15372
#	28703
#	45393
#	68575
#	80835
#	99177
#	113438
#	126808
#	144295
#	161653
#	175217
#
# Disc length: 2673 seconds
#
# Revision: 1
# Processed by: cddbd v1.5.2PL0 Copyright (c) Steve Scherf et al.
# Submitted via: CDex 1.70beta2
#
DISCID=880a6f0c
DTITLE=dicot - Asu ni Mukatte Ikimashō
DYEAR=2003
DGENRE=JPop
TTITLE0=A-I-TSU (Album Mix)
TTITLE1=Taiyō ga Kureta Kisetsu
TTITLE2=Hitoribocchi
TTITLE3=I am Kajū ga 100%
TTITLE4=HAKKA DROP
TTITLE5=Memeshikute
TTITLE6=Asu ni Mukatte Ikimashō
TTITLE7=Kenka Jōtō
TTITLE8=Nijūgokaime no Natsu
TTITLE9=Ano Subarashii Ai wo Mō Ichido
TTITLE10=Yoroshiku
TTITLE11=SARU no Koigokoro (Live Version)
EXTD=YEAR: 2003
EXTT0=
EXTT1=
EXTT2=
EXTT3=
EXTT4=
EXTT5=
EXTT6=
EXTT7=
EXTT8=
EXTT9=
EXTT10=
EXTT11=
PLAYORDER=
